<?xml version="1.0" encoding="UTF-8" standalone="no"?>
<!-- Uploaded to: SVG Repo, www.svgrepo.com, Generator: SVG Repo Mixer Tools -->

<svg
   width="20.000002"
   height="22.222239"
   viewBox="0 0 0.60000006 0.66666716"
   fill="none"
   version="1.1"
   id="svg1"
   xmlns="http://www.w3.org/2000/svg"
   xmlns:svg="http://www.w3.org/2000/svg">
  <defs
     id="defs1" />
  <path
     id="path1"
     style="fill:#ffffff;fill-opacity:1;stroke-width:0.0333334"
     d="M 0.3,0 C 0.2803775,0 0.2607369,0.01104299 0.2508984,0.03310547 l -0.24539063,0.5503125 c -0.02223518,0.0498635 0.02710142,0.10157198 0.07335938,0.076875 L 0.2756836,0.55523438 c 0.015307,-0.00817 0.0333258,-0.00817 0.0486328,0 l 0.19681641,0.10505859 c 0.0462599,0.0246971 0.0955963,-0.027012 0.0733594,-0.076875 L 0.34910156,0.03310547 C 0.33926307,0.01104299 0.31962248,0 0.3,0 Z m 7.6172e-4,0.18164063 c 0.002953,5.9911e-4 0.00526,0.002907 0.005859,0.005859 L 0.427734,0.4531051 C 0.430217,0.4592441 0.424088,0.4653734 0.417949,0.4628901 L 0.3007615,0.4335932 0.18164041,0.4628901 c -0.00535,4.8132e-4 -0.009437,-0.004671 -0.007793,-0.009785 0.0417374,-0.0873306 0.079803,-0.1769949 0.11912109,-0.26560547 8.0198e-4,-0.003613 0.0041,-0.006101 0.007793,-0.005859 z" />
</svg>
