<?xml version="1.0" encoding="UTF-8" standalone="no"?>
<!-- Created with Inkscape (http://www.inkscape.org/) -->

<svg
   version="1.1"
   id="svg1"
   width="31.999933"
   height="22.397442"
   viewBox="0 0 31.999933 22.397442"
   xmlns="http://www.w3.org/2000/svg"
   xmlns:svg="http://www.w3.org/2000/svg">
  <defs
     id="defs1" />
  <g
     id="g1"
     transform="translate(-154.14985,-276.61513)">
    <path
       style="fill:#000000;fill-opacity:1;stroke-width:0.0460579"
       d="m 162.71878,279.77634 c 0.0223,-0.56705 0.0154,-0.57947 -0.36132,-0.65357 -1.16927,-0.22999 -3.51463,-0.87896 -4.66038,-1.28955 -0.28709,-0.10288 -0.56099,-0.18706 -0.60867,-0.18706 -0.14955,0 -0.40725,0.27373 -0.7554,0.80236 -0.36444,0.55339 -0.871,1.41706 -0.94448,1.61034 l -0.0458,0.12048 h 3.68011 3.6801 z"
       id="path84" />
    <path
       style="fill:#000000;fill-opacity:1;stroke-width:0.0460579"
       d="m 162.7097,281.88349 v -0.8751 h -3.8858 -3.88581 l -0.162,0.42603 c -0.16783,0.44135 -0.40287,1.18418 -0.40287,1.27325 0,0.0368 1.15519,0.0509 4.16824,0.0509 h 4.16824 z"
       id="path81" />
    <path
       style="fill:#000000;fill-opacity:1;stroke-width:0.0460579"
       d="m 159.07113,284.50879 v -0.82905 h -2.43693 -2.43694 l -0.033,0.39595 c -0.0337,0.40519 -0.008,0.78284 0.0741,1.08942 l 0.0463,0.17272 h 2.39323 2.39324 z"
       id="path80" />
    <path
       style="fill:#000000;fill-opacity:1;stroke-width:0.0460579"
       d="m 183.56663,285.94275 c 0.0293,-0.0979 0.0533,-0.26504 0.0533,-0.37135 v -0.19329 l 0.31089,-0.14095 c 0.57873,-0.26237 1.44295,-0.77809 1.49488,-0.89206 0.0629,-0.13809 -0.0237,-0.28125 -0.2814,-0.46541 -0.1947,-0.1391 -0.23372,-0.21883 -0.23311,-0.47629 6.2e-4,-0.2601 0.14249,-0.50084 0.57862,-0.98185 0.78724,-0.86827 0.79516,-0.89344 0.41515,-1.31932 -0.17079,-0.19142 -0.29359,-0.39086 -0.39395,-0.63982 -0.0802,-0.19895 -0.17582,-0.40456 -0.21249,-0.45692 -0.0873,-0.1246 -0.31332,-0.17198 -0.48372,-0.1014 -0.23375,0.0968 -0.31211,0.29192 -0.39005,0.97116 -0.0868,0.75659 -0.12315,0.87421 -0.32465,1.05113 -0.24387,0.21412 -0.40165,0.27803 -0.81419,0.32975 -0.81972,0.10279 -1.27747,0.46713 -1.27783,1.01707 -3.3e-4,0.45651 -0.24751,0.63604 -0.87654,0.63658 -0.40169,3.2e-4 -0.4846,0.0621 -0.518,0.38559 -0.0143,0.1382 -0.0621,0.30645 -0.10628,0.3739 -0.0927,0.14144 -0.52259,0.44431 -0.8388,0.59094 l -0.21706,0.10065 1.49703,0.014 c 1.70747,0.016 1.53191,-0.0231 2.18789,0.48703 0.17732,0.13788 0.33467,0.25254 0.34966,0.25478 0.015,0.002 0.0513,-0.076 0.0806,-0.17397 z"
       id="path79" />
    <path
       style="fill:#000000;fill-opacity:1;stroke-width:0.0460579"
       d="m 182.91698,287.56579 c 0.0797,-0.0213 0.12383,-0.0969 0.19483,-0.33329 0.0505,-0.16812 0.0736,-0.31188 0.0513,-0.31947 -0.0223,-0.008 -0.26536,-0.16808 -0.54025,-0.35665 l -0.4998,-0.34285 -1.75818,-3.3e-4 -1.75818,-3.2e-4 -0.13832,-0.11639 c -0.27026,-0.2274 -0.23543,-0.47304 0.12656,-0.8924 0.42829,-0.49618 0.50884,-0.8208 0.32536,-1.31121 -0.13573,-0.36276 -0.19123,-0.39367 -0.39139,-0.21792 -0.13406,0.1177 -0.18021,0.13511 -0.25383,0.0957 -0.10793,-0.0578 -0.10821,-0.0623 -0.0214,-0.34848 0.13339,-0.4397 0.0715,-0.72119 -0.18196,-0.82708 -0.088,-0.0367 -0.17842,-0.0668 -0.20091,-0.0668 -0.0225,0 -0.0526,0.15026 -0.0669,0.33392 -0.048,0.61546 -0.27483,1.52048 -0.56267,2.24532 -0.1707,0.42986 -0.19682,0.71279 -0.173,1.87421 l 0.0115,0.56156 0.19575,0.0176 c 0.33066,0.0298 5.53177,0.0343 5.64147,0.005 z"
       id="path77" />
    <path
       style="fill:#000000;fill-opacity:1;stroke-width:0.0460579"
       d="m 156.83732,288.49305 c 1.21507,-0.90975 1.19091,-0.89743 1.76172,-0.89795 l 0.47209,-4.4e-4 v -0.69086 -0.69087 h -2.34895 -2.34896 v 0.11778 c 0,0.1719 0.0959,0.54195 0.15573,0.60069 0.0283,0.0279 0.17099,0.0977 0.31699,0.15529 0.14599,0.0576 0.31286,0.161 0.37082,0.22988 0.058,0.0689 0.23851,0.5016 0.40124,0.96161 0.16274,0.46002 0.31712,0.83621 0.34308,0.83599 0.026,-2.3e-4 0.42027,-0.27972 0.87624,-0.62112 z"
       id="path76" />
    <path
       id="path74"
       style="fill:#000000;fill-opacity:1;stroke-width:0.0460579"
       d="m 170.38167,276.61535 c -0.39609,-0.003 -0.78945,0.0249 -1.06266,0.0834 -2.21704,0.47498 -3.72688,1.92287 -4.29103,4.11498 -0.1139,0.44257 -0.12713,0.57324 -0.12666,1.254 6.9e-4,1.00217 0.15092,1.69746 0.58202,2.69438 0.46432,1.07375 1.56701,2.73032 2.64878,3.97915 0.93534,1.07979 2.16772,2.39987 2.24037,2.39987 0.025,0 0.25598,-0.22281 0.5132,-0.49512 2.87764,-3.0465 4.39861,-5.33203 4.83599,-7.26689 0.11565,-0.5116 0.14212,-1.75296 0.048,-2.25144 -0.20854,-1.10495 -0.67155,-2.02805 -1.40675,-2.80458 -0.77318,-0.81666 -1.74502,-1.35567 -2.90227,-1.60969 -0.28411,-0.0624 -0.68294,-0.0953 -1.07903,-0.0981 z m -0.0494,2.11434 c 0.54812,-6.7e-4 0.69661,0.0153 0.99025,0.10687 0.5262,0.16402 0.95293,0.40923 1.32254,0.75986 0.54274,0.51488 0.84986,1.06742 1.00158,1.80193 0.14878,0.72028 0.0571,1.39932 -0.28327,2.09716 -0.39162,0.80298 -1.17504,1.44105 -2.06388,1.68102 -0.38273,0.10334 -1.20998,0.12868 -1.61203,0.0493 -1.29868,-0.25639 -2.30627,-1.21041 -2.58059,-2.44341 -0.11708,-0.52624 -0.0787,-1.31256 0.0875,-1.79706 0.18009,-0.52481 0.45396,-0.96388 0.83318,-1.33568 0.3923,-0.38463 0.71313,-0.58275 1.25633,-0.77579 0.37769,-0.13422 0.44484,-0.14346 1.04836,-0.1442 z" />
    <path
       style="fill:#000000;fill-opacity:1;stroke-width:0.0460579"
       d="m 174.31005,290.42722 c -0.006,-0.4433 -0.0167,-0.80601 -0.0235,-0.80601 -0.0272,0 -1.30595,1.54369 -1.30595,1.57658 0,0.0195 0.30165,0.0355 0.67033,0.0355 h 0.67032 z"
       id="path72" />
    <path
       style="fill:#000000;fill-opacity:1;stroke-width:0.0460579"
       d="m 162.74492,289.83999 -0.0122,-1.39326 -0.47209,-0.0131 -0.4721,-0.0131 v 1.40638 1.40638 h 0.48429 0.48428 z"
       id="path71" />
    <path
       style="fill:#000000;fill-opacity:1;stroke-width:0.0460579"
       d="m 159.07113,289.82847 v -1.40476 h -0.41291 -0.41291 l -0.95731,0.72105 c -0.52653,0.39658 -0.9634,0.74574 -0.97084,0.77591 -0.007,0.0302 0.16355,0.31835 0.37997,0.6404 0.21643,0.32205 0.39351,0.60503 0.39351,0.62885 0,0.0257 0.40265,0.0433 0.99024,0.0433 h 0.99025 z"
       id="path70" />
    <path
       style="fill:#000000;fill-opacity:1;stroke-width:0.0460579"
       d="m 180.5621,291.95865 c 0.12766,-0.13299 0.3634,-0.39725 0.52386,-0.58724 0.33763,-0.39975 0.48592,-0.5219 0.8138,-0.67037 0.13048,-0.0591 0.3121,-0.17314 0.40359,-0.25347 0.22907,-0.20113 0.62576,-0.77492 0.62576,-0.90513 0,-0.0589 -0.11417,-0.33464 -0.2537,-0.61287 l -0.25371,-0.50586 -1.64618,4e-5 -1.64618,5e-5 v 0.60253 0.60254 l -0.15555,0.13892 c -0.12735,0.11374 -0.18159,0.13371 -0.29922,0.11019 -0.29128,-0.0583 -0.32654,-0.14402 -0.34333,-0.83493 l -0.0151,-0.62191 -0.61853,0.0128 -0.61853,0.0128 -0.006,1.40386 -0.006,1.40387 0.42675,0.0572 c 0.23471,0.0314 0.5804,0.0993 0.7682,0.15084 0.4053,0.1112 1.36339,0.45506 1.72032,0.61744 0.13932,0.0634 0.27475,0.11643 0.30095,0.11789 0.0262,0.001 0.15208,-0.10616 0.27974,-0.23915 z"
       id="path69" />
    <path
       style="fill:#000000;fill-opacity:1;stroke-width:0.0460579"
       d="m 159.081,292.30405 0.0132,-0.24183 -0.66784,0.003 c -0.60807,0.003 -0.65135,0.008 -0.48361,0.0615 0.23632,0.0749 0.48295,0.20574 0.82904,0.4397 0.31202,0.21094 0.2821,0.23633 0.30925,-0.26251 z"
       id="path68" />
    <path
       style="fill:#000000;fill-opacity:1;stroke-width:0.0460579"
       d="m 162.75406,293.1469 0.004,-1.07839 -0.76011,-0.0146 c -0.71971,-0.0138 -0.76569,-0.0202 -0.8649,-0.11954 l -0.10479,-0.10491 v -3.31888 -3.31887 l 0.12923,-0.11116 c 0.17287,-0.1487 0.33142,-0.1412 0.49609,0.0235 l 0.13463,0.13463 v 1.14962 1.14962 l 0.29402,0.0315 c 0.39494,0.0423 0.62086,-0.003 0.65283,-0.13011 0.0137,-0.0544 0.0187,-0.91739 0.0111,-1.91771 l -0.0137,-1.81877 -1.39325,-0.0122 -1.39325,-0.0122 v 4.83582 4.83582 l 0.17272,0.091 c 0.095,0.05 0.26598,0.17451 0.37997,0.27657 0.114,0.10205 0.24457,0.18588 0.29016,0.18627 0.0712,6.2e-4 0.3476,0.0519 1.69033,0.31354 0.114,0.0222 0.22145,0.0331 0.2388,0.0241 0.0173,-0.009 0.0335,-0.50153 0.0359,-1.09464 z"
       id="path65" />
    <path
       style="fill:#000000;fill-opacity:1;stroke-width:0.0460579"
       d="m 166.71674,292.27578 v -2.22756 l -0.41535,-0.51512 c -0.22844,-0.28331 -0.46954,-0.59701 -0.53579,-0.69711 -0.0662,-0.1001 -0.12491,-0.182 -0.13037,-0.182 -0.005,0 -0.006,0.41971 -0.002,0.93268 0.004,0.51297 0.0116,1.82907 0.0161,2.92467 l 0.008,1.99201 h 0.52966 0.52967 z"
       id="path64" />
    <path
       style="fill:#000000;fill-opacity:1;stroke-width:0.0460579"
       d="m 174.28695,293.31736 c -0.0162,-0.67763 -0.0387,-1.24242 -0.05,-1.25508 -0.0113,-0.0127 -0.48583,-0.023 -1.05462,-0.023 h -1.03415 l -0.32922,0.33981 -0.32923,0.33981 0.13078,0.0977 c 0.22208,0.16597 2.62455,1.72825 2.6613,1.73059 0.0191,10e-4 0.0214,-0.55222 0.005,-1.22984 z"
       id="path63" />
    <path
       style="fill:#000000;fill-opacity:1;stroke-width:0.0460579"
       d="m 175.72105,294.99512 0.46058,-0.10207 0.0118,-3.83342 c 0.006,-2.10839 -0.004,-3.83329 -0.023,-3.83312 -0.0191,1.9e-4 -0.0866,0.0769 -0.14995,0.17044 -0.0633,0.0936 -0.27969,0.38878 -0.4808,0.65601 l -0.36566,0.48589 -0.002,1.28962 c -0.005,2.73163 0.0212,5.27352 0.0543,5.27118 0.019,-10e-4 0.2418,-0.0484 0.49512,-0.10453 z"
       id="path61" />
    <path
       style="fill:#000000;fill-opacity:1;stroke-width:0.0460579"
       d="m 165.67213,296.16084 c 0.28779,-0.31243 0.40187,-0.35133 0.66158,-0.2256 0.11196,0.0542 0.23597,0.14799 0.27557,0.20842 0.0396,0.0604 0.0867,0.10989 0.10471,0.10989 0.0409,0 0.0583,-0.62327 0.0222,-0.7945 l -0.0267,-0.12666 h -0.78373 c -0.63907,0 -0.807,-0.0137 -0.90977,-0.0744 -0.26065,-0.15397 -0.24847,0.0248 -0.26935,-3.95364 l -0.0193,-3.68265 -0.21118,-0.37044 c -0.11615,-0.20374 -0.36239,-0.66061 -0.54722,-1.01525 l -0.33604,-0.64481 -1.8e-4,4.28338 -1.8e-4,4.28338 0.11822,0.1122 c 0.11923,0.11315 0.46378,0.76598 0.66561,1.26115 0.13847,0.33973 0.36296,0.6027 0.63587,0.74484 0.30834,0.16059 0.37776,0.14769 0.61998,-0.11526 z"
       id="path60" />
    <path
       style="fill:#000000;fill-opacity:1;stroke-width:0.0460579"
       d="m 173.92629,296.43259 c 0.30022,-0.0756 0.43643,-0.2213 0.43442,-0.46471 -9e-4,-0.10887 -0.0291,-0.24742 -0.0626,-0.3079 -0.0335,-0.0605 -0.41103,-0.33136 -0.83892,-0.60197 -0.42789,-0.27061 -0.89715,-0.56893 -1.04281,-0.66293 l -0.26483,-0.17091 v 0.87065 0.87066 l 0.22738,0.0218 c 0.16013,0.0154 0.324,0.0802 0.55403,0.21921 0.44668,0.26989 0.64237,0.31442 0.99331,0.22605 z"
       id="path59" />
    <path
       style="fill:#000000;fill-opacity:1;stroke-width:0.0460579"
       d="m 179.74149,298.53037 c 0.14733,-0.1032 0.27973,-0.38819 0.31339,-0.67458 0.042,-0.3571 -0.0579,-0.69025 -0.55602,-1.85556 -0.49554,-1.15922 -0.55408,-1.35437 -0.51548,-1.71873 0.0424,-0.39999 0.14664,-0.6476 0.42837,-1.01739 0.19948,-0.26183 0.24338,-0.34699 0.19481,-0.37794 -0.0345,-0.022 -0.28033,-0.13221 -0.54631,-0.24497 -0.56331,-0.2388 -1.27383,-0.43475 -1.71566,-0.47315 l -0.31089,-0.027 1.4e-4,0.63998 c 5e-5,0.35199 0.0136,1.05717 0.0302,1.56708 l 0.03,0.9271 0.22633,0.0268 c 0.28601,0.0339 0.51416,0.17395 0.67215,0.41266 0.11087,0.16751 0.1243,0.23249 0.13073,0.63247 0.006,0.35989 0.0269,0.48478 0.10968,0.64819 0.17901,0.35351 0.69387,1.09714 0.93929,1.35668 0.25446,0.26908 0.3825,0.3092 0.56928,0.17838 z"
       id="path55" />
    <path
       style="fill:#000000;fill-opacity:1;stroke-width:0.0460579"
       d="m 168.41734,295.38199 c -0.0769,-0.0769 -0.13464,-0.18395 -0.13464,-0.24955 0,-0.34125 0.14311,-0.39881 0.9915,-0.39881 h 0.67367 l 0.13464,0.13464 c 0.0812,0.0812 0.13463,0.18317 0.13463,0.25686 0,0.0737 -0.0535,0.1757 -0.13463,0.25686 l -0.13464,0.13463 h -0.69795 -0.69795 z"
       id="path54" />
    <path
       style="fill:#000000;fill-opacity:1;stroke-width:0.0460579"
       d="m 169.26201,298.95945 c 0.0109,-0.0317 -0.0196,-0.1923 -0.0677,-0.35695 -0.0642,-0.21992 -0.0799,-0.37155 -0.0589,-0.57128 0.0566,-0.53893 0.27214,-0.8119 0.9499,-1.20284 0.19409,-0.11195 0.48523,-0.30498 0.64699,-0.42896 0.16175,-0.12397 0.3582,-0.25856 0.43656,-0.29908 0.0784,-0.0405 0.15535,-0.10723 0.17108,-0.14823 0.0352,-0.0917 0.0371,-1.98876 0.002,-2.1166 -0.0139,-0.0507 -0.15845,-0.18021 -0.32133,-0.28787 -0.28437,-0.18796 -0.31036,-0.19575 -0.65354,-0.19591 -0.28321,-1.4e-4 -0.39086,-0.0205 -0.5186,-0.0982 -0.19107,-0.11622 -1.45199,-1.35341 -1.9114,-1.87543 -0.17732,-0.20149 -0.32994,-0.35906 -0.33915,-0.35016 -0.009,0.009 -0.0133,1.46274 -0.009,3.23075 l 0.008,3.21457 0.15224,0.34585 c 0.0837,0.19022 0.17757,0.41117 0.20853,0.491 0.0834,0.21497 0.21858,0.31974 0.6743,0.5226 0.42773,0.19039 0.59673,0.22438 0.63025,0.12676 z"
       id="path53" />
  </g>
</svg>
